<svg width="32" height="32" viewBox="0 0 32 32" fill="none" xmlns="http://www.w3.org/2000/svg">
<path d="M15.3582 8.3075C16.126 8.34404 16.8917 8.41298 17.6703 8.5525C20.4862 9.05698 21.9788 9.83009 25.016 10.7978L27.0388 18.3473C26.6858 18.679 25.5907 19.5851 24.0646 19.69C24.163 19.4294 24.1842 19.129 24.1243 18.8081C24.0389 18.3501 23.7852 17.8463 23.3518 17.3627C23.1266 17.1115 22.9169 16.9364 22.6671 16.7266L15.6211 10.8089C15.4918 10.7003 15.3547 10.6181 15.2124 10.5594C14.7839 10.3831 14.3321 10.4308 13.9114 10.617C13.5166 10.7917 13.1481 11.0908 12.858 11.4362C12.0318 12.4199 12.0277 13.8852 10.425 14.3155C10.2217 14.3701 10.0414 14.3769 9.90218 14.3394C9.79861 14.3116 9.72265 14.2583 9.68788 14.1825C9.57029 13.9264 10.1368 12.9163 10.2089 12.6128C10.286 12.2881 10.3255 11.9362 10.3235 11.6774C10.3052 9.38836 13.6196 8.4132 15.3582 8.3075Z" fill="white"/>
<path d="M15.8448 23.9875C15.7551 24.125 15.6342 24.2188 15.4954 24.273C15.3488 24.3303 15.1784 24.3453 14.999 24.323C14.7599 24.2933 14.51 24.1978 14.2794 24.0475L5.04688 18.0242L6.98071 10.8071L10.4174 9.81897C9.99564 10.3339 9.73808 10.9515 9.74391 11.6819C9.74561 11.8944 9.71084 12.1932 9.643 12.4787C9.49108 13.1182 8.86015 13.769 9.16059 14.4234C9.27221 14.6663 9.48104 14.8277 9.75218 14.9007C9.98766 14.9641 10.272 14.9582 10.575 14.8768C12.4942 14.3615 12.4174 12.8638 13.3035 11.8088C13.5397 11.5276 13.8347 11.2862 14.1455 11.1487C14.4302 11.0227 14.726 10.9863 14.9919 11.0957C15.0782 11.1313 15.164 11.1834 15.2485 11.2543L20.9589 16.0503C21.5486 16.5457 22.3878 17.1552 22.92 17.749C23.2792 18.1499 23.4871 18.5544 23.5539 18.9126C23.6804 19.5906 23.3019 19.9703 22.6572 20.0049C22.3701 20.0203 22.0222 19.9697 21.6157 19.8364L18.0157 16.6114C17.8965 16.5048 17.7133 16.515 17.6066 16.6342C17.4999 16.7534 17.5101 16.9365 17.6293 17.0432L21.1941 20.2367C21.4643 22.5063 19.5349 21.997 19.1877 21.8878L15.8913 18.8911C15.7727 18.7832 15.589 18.7918 15.4811 18.9105C15.3731 19.029 15.3818 19.2127 15.5004 19.3207L18.6552 22.1887C18.9464 22.6763 17.8855 24.0453 16.4615 23.2645L13.7589 20.9373C13.6378 20.8325 13.4547 20.8457 13.3498 20.9668C13.2451 21.088 13.2583 21.2711 13.3794 21.3759L15.9443 23.5846C16.0453 23.6716 15.9051 23.8949 15.8448 23.9875Z" fill="white"/>
<path d="M4.44461 18.0266C4.42992 18.058 4.42128 18.091 4.41848 18.1242L4.30391 18.5516C4.23511 18.8087 4.0671 19.0143 3.85199 19.1386C3.84512 19.1426 3.83804 19.1463 3.83154 19.1507C3.62064 19.2656 3.36685 19.3032 3.11734 19.2364L0.717997 18.5935C0.713789 18.5924 0.709581 18.591 0.705374 18.59C0.453503 18.519 0.252346 18.3533 0.130618 18.1423C0.00645404 17.9273 -0.0360658 17.6649 0.0330289 17.4071C0.0342839 17.4022 0.0358341 17.3973 0.0369413 17.3924L2.45024 8.38576C2.51904 8.12873 2.68705 7.92307 2.90216 7.79875C2.90902 7.79477 2.91611 7.79115 2.9226 7.78665C3.13358 7.67179 3.38737 7.63414 3.63688 7.70102L6.03637 8.34391C6.29333 8.41278 6.49907 8.58079 6.6233 8.7959C6.62736 8.80284 6.63106 8.80985 6.63549 8.81635C6.75035 9.02733 6.78792 9.28112 6.72111 9.53062L6.475 10.4492C6.45935 10.4816 6.44968 10.517 6.44702 10.5535L4.44461 18.0266Z" fill="white"/>
<path d="M27.663 18.4339C27.665 18.3769 27.6503 18.3197 27.6191 18.2699L25.5595 10.5831C25.5611 10.526 25.5457 10.4705 25.5166 10.4232L25.2772 9.52965C25.2103 9.28014 25.248 9.02635 25.3628 8.81538C25.3673 8.80895 25.3715 8.80216 25.3755 8.7953C25.4998 8.58019 25.7049 8.41188 25.9619 8.34301L28.3614 7.70004C28.6109 7.63316 28.8647 7.67081 29.0757 7.78567C29.0822 7.79017 29.0888 7.79438 29.0958 7.79837C29.3109 7.92268 29.4792 8.12782 29.5481 8.38479L31.9668 17.4114C32.0336 17.6609 31.996 17.9147 31.881 18.1257C31.8766 18.1322 31.8723 18.1388 31.8684 18.1457C31.7441 18.3609 31.539 18.5292 31.2819 18.598L28.8824 19.241C28.6329 19.3078 28.3791 19.2702 28.1682 19.1554C28.1617 19.1509 28.155 19.1466 28.1481 19.1426C27.933 19.0184 27.7647 18.8132 27.6958 18.5562L27.663 18.4339Z" fill="white"/>
</svg>
